<svg xmlns="http://www.w3.org/2000/svg" xmlns:xlink="http://www.w3.org/1999/xlink" contentStyleType="text/css" data-diagram-type="DESCRIPTION" height="604px" preserveAspectRatio="none" style="width:1107px;height:604px;" version="1.1" viewBox="0 0 1107 604" width="1107px" zoomAndPan="magnify"><defs/><g><!--cluster Interfaces_diagram--><g class="cluster" data-entity="Interfaces_diagram" data-source-line="4" data-uid="ent0002" id="cluster_Interfaces_diagram"><rect fill="none" height="514" rx="2.5" ry="2.5" style="stroke:#181818;stroke-width:1;" width="1087.9" x="7" y="7"/><rect fill="none" height="10" style="stroke:#181818;stroke-width:1;" width="15" x="1074.9" y="12"/><rect fill="none" height="2" style="stroke:#181818;stroke-width:1;" width="4" x="1072.9" y="14"/><rect fill="none" height="2" style="stroke:#181818;stroke-width:1;" width="4" x="1072.9" y="18"/><text fill="#000000" font-family="sans-serif" font-size="14" font-weight="bold" lengthAdjust="spacing" textLength="152.1611" x="474.8694" y="32.9951">Interfaces_diagram</text></g><!--entity frame--><g class="entity" data-entity="frame" data-source-line="6" data-uid="ent0003" id="entity_frame"><rect fill="#F1F1F1" height="46.2969" rx="2.5" ry="2.5" style="stroke:#181818;stroke-width:0.5;" width="81.5146" x="447.81" y="458.85"/><rect fill="#F1F1F1" height="10" style="stroke:#181818;stroke-width:0.5;" width="15" x="509.3246" y="463.85"/><rect fill="#F1F1F1" height="2" style="stroke:#181818;stroke-width:0.5;" width="4" x="507.3246" y="465.85"/><rect fill="#F1F1F1" height="2" style="stroke:#181818;stroke-width:0.5;" width="4" x="507.3246" y="469.85"/><text fill="#000000" font-family="sans-serif" font-size="14" lengthAdjust="spacing" textLength="41.5146" x="462.81" y="491.8451">frame</text></g><!--entity placement--><g class="entity" data-entity="placement" data-source-line="7" data-uid="ent0004" id="entity_placement"><ellipse cx="792.95" cy="468" fill="#F1F1F1" rx="8" ry="8" style="stroke:#181818;stroke-width:0.5;"/><text fill="#000000" font-family="sans-serif" font-size="14" lengthAdjust="spacing" textLength="74.2793" x="755.8104" y="497.9951">placement</text></g><!--entity Cylinder--><g class="entity" data-entity="Cylinder" data-source-line="8" data-uid="ent0007" id="entity_Cylinder"><rect fill="#F1F1F1" height="46.2969" rx="2.5" ry="2.5" style="stroke:#181818;stroke-width:0.5;" width="97.9688" x="743.97" y="193.85"/><rect fill="#F1F1F1" height="10" style="stroke:#181818;stroke-width:0.5;" width="15" x="821.9388" y="198.85"/><rect fill="#F1F1F1" height="2" style="stroke:#181818;stroke-width:0.5;" width="4" x="819.9388" y="200.85"/><rect fill="#F1F1F1" height="2" style="stroke:#181818;stroke-width:0.5;" width="4" x="819.9388" y="204.85"/><text fill="#000000" font-family="sans-serif" font-size="14" lengthAdjust="spacing" textLength="57.9688" x="758.97" y="226.8451">Cylinder</text></g><!--entity input_0--><g class="entity" data-entity="input_0" data-source-line="9" data-uid="ent0008" id="entity_input_0"><ellipse cx="488.57" cy="233" fill="#F1F1F1" rx="8" ry="8" style="stroke:#181818;stroke-width:0.5;"/><text fill="#000000" font-family="sans-serif" font-size="14" lengthAdjust="spacing" textLength="51.9189" x="462.6105" y="262.9951">input_0</text></g><!--entity output_0--><g class="entity" data-entity="output_0" data-source-line="10" data-uid="ent0010" id="entity_output_0"><ellipse cx="1069.9" cy="242" fill="#F1F1F1" rx="8" ry="8" style="stroke:#181818;stroke-width:0.5;"/><text fill="#000000" font-family="sans-serif" font-size="14" lengthAdjust="spacing" textLength="62.084" x="1038.858" y="271.9951">output_0</text></g><!--entity contact\nsensor--><g class="entity" data-entity="contact.nsensor" data-source-line="11" data-uid="ent0012" id="entity_contact.nsensor"><ellipse cx="366.57" cy="102" fill="#F1F1F1" rx="8" ry="8" style="stroke:#181818;stroke-width:0.5;"/><text fill="#000000" font-family="sans-serif" font-size="14" lengthAdjust="spacing" textLength="52.3906" x="340.3747" y="131.9951">contact</text><text fill="#000000" font-family="sans-serif" font-size="14" lengthAdjust="spacing" textLength="46.3955" x="340.3747" y="148.292">sensor</text></g><!--entity sensor--><g class="entity" data-entity="sensor" data-source-line="13" data-uid="ent0014" id="entity_sensor"><rect fill="#F1F1F1" height="46.2969" rx="2.5" ry="2.5" style="stroke:#181818;stroke-width:0.5;" width="86.3955" x="188.51" y="169.85"/><rect fill="#F1F1F1" height="10" style="stroke:#181818;stroke-width:0.5;" width="15" x="254.9055" y="174.85"/><rect fill="#F1F1F1" height="2" style="stroke:#181818;stroke-width:0.5;" width="4" x="252.9055" y="176.85"/><rect fill="#F1F1F1" height="2" style="stroke:#181818;stroke-width:0.5;" width="4" x="252.9055" y="180.85"/><text fill="#000000" font-family="sans-serif" font-size="14" lengthAdjust="spacing" textLength="46.3955" x="203.51" y="202.8451">sensor</text></g><!--entity sensor\nposition--><g class="entity" data-entity="sensor.nposition" data-source-line="15" data-uid="ent0016" id="entity_sensor.nposition"><ellipse cx="488.57" cy="124" fill="#F1F1F1" rx="8" ry="8" style="stroke:#181818;stroke-width:0.5;"/><text fill="#000000" font-family="sans-serif" font-size="14" lengthAdjust="spacing" textLength="46.3955" x="460.8434" y="153.9951">sensor</text><text fill="#000000" font-family="sans-serif" font-size="14" lengthAdjust="spacing" textLength="55.4531" x="460.8434" y="170.292">position</text></g><!--entity Cylinder\npower--><g class="entity" data-entity="Cylinder.npower" data-source-line="20" data-uid="ent0019" id="entity_Cylinder.npower"><ellipse cx="951.86" cy="217" fill="#F1F1F1" rx="8" ry="8" style="stroke:#181818;stroke-width:0.5;"/><text fill="#000000" font-family="sans-serif" font-size="14" lengthAdjust="spacing" textLength="57.9688" x="922.8756" y="246.9951">Cylinder</text><text fill="#000000" font-family="sans-serif" font-size="14" lengthAdjust="spacing" textLength="43.2715" x="922.8756" y="263.292">power</text></g><!--entity room--><g class="entity" data-entity="room" data-source-line="20" data-uid="ent0020" id="entity_room"><ellipse cx="1069.9" cy="401" fill="#F1F1F1" rx="8" ry="8" style="stroke:#181818;stroke-width:0.5;"/><text fill="#000000" font-family="sans-serif" font-size="14" lengthAdjust="spacing" textLength="36.5244" x="1051.6378" y="430.9951">room</text></g><!--entity Haul_Off\npower--><g class="entity" data-entity="Haul_Off.npower" data-source-line="21" data-uid="ent0022" id="entity_Haul_Off.npower"><ellipse cx="951.86" cy="342" fill="#F1F1F1" rx="8" ry="8" style="stroke:#181818;stroke-width:0.5;"/><text fill="#000000" font-family="sans-serif" font-size="14" lengthAdjust="spacing" textLength="59.7461" x="921.987" y="371.9951">Haul_Off</text><text fill="#000000" font-family="sans-serif" font-size="14" lengthAdjust="spacing" textLength="43.2715" x="921.987" y="388.292">power</text></g><!--entity Haul_Off--><g class="entity" data-entity="Haul_Off" data-source-line="27" data-uid="ent0028" id="entity_Haul_Off"><rect fill="#F1F1F1" height="46.2969" rx="2.5" ry="2.5" style="stroke:#181818;stroke-width:0.5;" width="99.7461" x="743.08" y="318.85"/><rect fill="#F1F1F1" height="10" style="stroke:#181818;stroke-width:0.5;" width="15" x="822.8261" y="323.85"/><rect fill="#F1F1F1" height="2" style="stroke:#181818;stroke-width:0.5;" width="4" x="820.8261" y="325.85"/><rect fill="#F1F1F1" height="2" style="stroke:#181818;stroke-width:0.5;" width="4" x="820.8261" y="329.85"/><text fill="#000000" font-family="sans-serif" font-size="14" lengthAdjust="spacing" textLength="59.7461" x="758.08" y="351.8451">Haul_Off</text></g><!--entity Thermoplastic\nposition--><g class="entity" data-entity="Thermoplastic.nposition" data-source-line="29" data-uid="ent0030" id="entity_Thermoplastic.nposition"><ellipse cx="488.57" cy="342" fill="#F1F1F1" rx="8" ry="8" style="stroke:#181818;stroke-width:0.5;"/><text fill="#000000" font-family="sans-serif" font-size="14" lengthAdjust="spacing" textLength="99.7227" x="438.7087" y="371.9951">Thermoplastic</text><text fill="#000000" font-family="sans-serif" font-size="14" lengthAdjust="spacing" textLength="55.4531" x="438.7087" y="388.292">position</text></g><!--entity Thermoplastic--><g class="entity" data-entity="Thermoplastic" data-source-line="33" data-uid="ent0034" id="entity_Thermoplastic"><rect fill="#F1F1F1" height="46.2969" rx="2.5" ry="2.5" style="stroke:#181818;stroke-width:0.5;" width="139.7227" x="161.84" y="318.85"/><rect fill="#F1F1F1" height="10" style="stroke:#181818;stroke-width:0.5;" width="15" x="281.5627" y="323.85"/><rect fill="#F1F1F1" height="2" style="stroke:#181818;stroke-width:0.5;" width="4" x="279.5627" y="325.85"/><rect fill="#F1F1F1" height="2" style="stroke:#181818;stroke-width:0.5;" width="4" x="279.5627" y="329.85"/><text fill="#000000" font-family="sans-serif" font-size="14" lengthAdjust="spacing" textLength="99.7227" x="176.84" y="351.8451">Thermoplastic</text></g><!--entity shape--><g class="entity" data-entity="shape" data-source-line="34" data-uid="ent0035" id="entity_shape"><ellipse cx="61.92" cy="264" fill="#F1F1F1" rx="8" ry="8" style="stroke:#181818;stroke-width:0.5;"/><text fill="#000000" font-family="sans-serif" font-size="14" lengthAdjust="spacing" textLength="42.2461" x="40.797" y="293.9951">shape</text></g><!--entity press--><g class="entity" data-entity="press" data-source-line="36" data-uid="ent0037" id="entity_press"><rect fill="#F1F1F1" height="46.2969" rx="2.5" ry="2.5" style="stroke:#181818;stroke-width:0.5;" width="77.8438" x="23" y="153.85"/><rect fill="#F1F1F1" height="10" style="stroke:#181818;stroke-width:0.5;" width="15" x="80.8438" y="158.85"/><rect fill="#F1F1F1" height="2" style="stroke:#181818;stroke-width:0.5;" width="4" x="78.8438" y="160.85"/><rect fill="#F1F1F1" height="2" style="stroke:#181818;stroke-width:0.5;" width="4" x="78.8438" y="164.85"/><text fill="#000000" font-family="sans-serif" font-size="14" lengthAdjust="spacing" textLength="37.8438" x="38" y="186.8451">press</text></g><!--entity Infrared_lamp--><g class="entity" data-entity="Infrared_lamp" data-source-line="42" data-uid="ent0042" id="entity_Infrared_lamp"><rect fill="#F1F1F1" height="46.2969" rx="2.5" ry="2.5" style="stroke:#181818;stroke-width:0.5;" width="137.5146" x="575.57" y="399.85"/><rect fill="#F1F1F1" height="10" style="stroke:#181818;stroke-width:0.5;" width="15" x="693.0846" y="404.85"/><rect fill="#F1F1F1" height="2" style="stroke:#181818;stroke-width:0.5;" width="4" x="691.0846" y="406.85"/><rect fill="#F1F1F1" height="2" style="stroke:#181818;stroke-width:0.5;" width="4" x="691.0846" y="410.85"/><text fill="#000000" font-family="sans-serif" font-size="14" lengthAdjust="spacing" textLength="97.5146" x="590.57" y="432.8451">Infrared_lamp</text></g><!--entity building--><g class="entity" data-entity="building" data-source-line="47" data-uid="ent0045" id="entity_building"><rect fill="#F1F1F1" height="46.2969" rx="2.5" ry="2.5" style="stroke:#181818;stroke-width:0.5;" width="96.0752" x="903.83" y="538.85"/><rect fill="#F1F1F1" height="10" style="stroke:#181818;stroke-width:0.5;" width="15" x="979.9052" y="543.85"/><rect fill="#F1F1F1" height="2" style="stroke:#181818;stroke-width:0.5;" width="4" x="977.9052" y="545.85"/><rect fill="#F1F1F1" height="2" style="stroke:#181818;stroke-width:0.5;" width="4" x="977.9052" y="549.85"/><text fill="#000000" font-family="sans-serif" font-size="14" lengthAdjust="spacing" textLength="56.0752" x="918.83" y="571.8451">building</text></g><!--entity energy--><g class="entity" data-entity="energy" data-source-line="49" data-uid="ent0046" id="entity_energy"><ellipse cx="1069.9" cy="553" fill="#F1F1F1" rx="8" ry="8" style="stroke:#181818;stroke-width:0.5;"/><text fill="#000000" font-family="sans-serif" font-size="14" lengthAdjust="spacing" textLength="49.0273" x="1045.3863" y="582.9951">energy</text></g><!--entity location--><g class="entity" data-entity="location" data-source-line="50" data-uid="ent0049" id="entity_location"><ellipse cx="792.95" cy="566" fill="#F1F1F1" rx="8" ry="8" style="stroke:#181818;stroke-width:0.5;"/><text fill="#000000" font-family="sans-serif" font-size="14" lengthAdjust="spacing" textLength="55.5488" x="765.1756" y="595.9951">location</text></g><!--link frame to placement--><g class="link" data-entity-1="frame" data-entity-2="placement" data-source-line="7" data-uid="lnk6" id="link_frame_placement"><path d="M529.72,480.14 C601.37,476.82 747.18,470.07 783.58,468.39" fill="none" id="frame-placement" style="stroke:#181818;stroke-width:1;"/></g><!--link input_0 to Cylinder--><g class="link" data-entity-1="input_0" data-entity-2="Cylinder" data-source-line="9" data-uid="lnk9" id="link_input_0_Cylinder"><path d="M497.35,232.59 C531.41,230.79 669.05,223.5 743.53,219.56" fill="none" id="input_0-Cylinder" style="stroke:#181818;stroke-width:1;"/></g><!--link output_0 to Cylinder--><g class="link" data-entity-1="output_0" data-entity-2="Cylinder" data-source-line="10" data-uid="lnk11" id="link_output_0_Cylinder"><path d="M1064.95,232.51 C1056.39,213.39 1034.12,170.65 999.9,154 C941.07,125.37 866.43,165.32 825.09,193.47" fill="none" id="output_0-Cylinder" style="stroke:#181818;stroke-width:1;"/></g><!--link contact\nsensor to Cylinder--><g class="link" data-entity-1="contact.nsensor" data-entity-2="Cylinder" data-source-line="11" data-uid="lnk13" id="link_contact.nsensor_Cylinder"><path d="M375.49,94.74 C386.89,84.84 409.02,67.6 431.57,61 C480.19,46.76 496.9,46.89 545.57,61 C635.28,87.01 723.66,156.56 766.03,193.38" fill="none" id="contact\nsensor-Cylinder" style="stroke:#181818;stroke-width:1;"/></g><!--link sensor to input_0--><g class="link" data-entity-1="sensor" data-entity-2="input_0" data-source-line="14" data-uid="lnk15" id="link_sensor_input_0"><path d="M275.36,199.7 C337.71,209.48 443.6927,226.109 473.9327,230.859" fill="none" id="sensor-to-input_0" style="stroke:#181818;stroke-width:1;"/><polygon fill="#181818" points="479.86,231.79,471.5897,226.4419,474.9206,231.0141,470.3483,234.345,479.86,231.79" style="stroke:#181818;stroke-width:1;"/><text fill="#000000" font-family="sans-serif" font-size="13" lengthAdjust="spacing" textLength="68.0723" x="332.57" y="205.4869">connected</text></g><!--link sensor to sensor\nposition--><g class="link" data-entity-1="sensor" data-entity-2="sensor.nposition" data-source-line="15" data-uid="lnk17" id="link_sensor_sensor.nposition"><path d="M275.06,184.99 C309.44,178.13 359.01,167.4 401.57,155 C430.82,146.47 459.0048,135.5424 474.0448,129.4824" fill="none" id="sensor-to-sensor\nposition" style="stroke:#181818;stroke-width:1;"/><polygon fill="#181818" points="479.61,127.24,469.7672,126.8934,474.9723,129.1086,472.7571,134.3137,479.61,127.24" style="stroke:#181818;stroke-width:1;"/></g><!--link Cylinder to placement--><g class="link" data-entity-1="Cylinder" data-entity-2="placement" data-source-line="17" data-uid="lnk18" id="link_Cylinder_placement"><path d="M743.47,235.94 C708.81,252.14 665.11,279.13 644.32,318.5 C606.47,390.19 739.7941,447.5753 777.9241,462.3253" fill="none" id="Cylinder-to-placement" style="stroke:#181818;stroke-width:1;"/><polygon fill="#181818" points="783.52,464.49,776.5693,457.5124,778.8567,462.6861,773.683,464.9736,783.52,464.49" style="stroke:#181818;stroke-width:1;"/></g><!--link Cylinder\npower to room--><g class="link" data-entity-1="Cylinder.npower" data-entity-2="room" data-source-line="20" data-uid="lnk21" id="link_Cylinder.npower_room"><path d="M960.27,225.96 C969.89,237.78 986.98,259.36 999.9,279 C1026.52,319.45 1053.45,370.74 1064.12,391.57" fill="none" id="Cylinder\npower-room" style="stroke:#181818;stroke-width:1;"/></g><!--link Haul_Off\npower to room--><g class="link" data-entity-1="Haul_Off.npower" data-entity-2="room" data-source-line="21" data-uid="lnk23" id="link_Haul_Off.npower_room"><path d="M960.84,346.06 C981.94,356.78 1039.05,385.82 1060.56,396.76" fill="none" id="Haul_Off\npower-room" style="stroke:#181818;stroke-width:1;"/></g><!--reverse link placement to room--><g class="link" data-entity-1="placement" data-entity-2="room" data-source-line="23" data-uid="lnk25" id="link_placement_room"><path d="M808.1483,468.4239 C839.4183,469.1739 947.61,468.95 1030.9,432 C1042.42,426.89 1053.32,417.33 1060.47,410.17" fill="none" id="placement-backto-room" style="stroke:#181818;stroke-width:1;"/><polygon fill="#181818" points="802.15,468.28,811.0515,472.4946,807.1486,468.3999,811.2433,464.4969,802.15,468.28" style="stroke:#181818;stroke-width:1;"/></g><!--link Cylinder to Cylinder\npower--><g class="link" data-entity-1="Cylinder" data-entity-2="Cylinder.npower" data-source-line="24" data-uid="lnk26" id="link_Cylinder_Cylinder.npower"><path d="M842.31,217 C878.51,217 918.79,217 937,217" fill="none" id="Cylinder-to-Cylinder\npower" style="stroke:#181818;stroke-width:1;"/><polygon fill="#181818" points="943,217,934,213,938,217,934,221,943,217" style="stroke:#181818;stroke-width:1;"/></g><!--link room to output_0--><g class="link" data-entity-1="room" data-entity-2="output_0" data-source-line="25" data-uid="lnk27" id="link_room_output_0"><path d="M1069.9,391.68 C1069.9,344.91 1069.9,304.13 1069.9,257.36" fill="none" id="room-to-output_0" style="stroke:#181818;stroke-width:1;"/><polygon fill="#181818" points="1069.9,251.36,1065.9,260.36,1069.9,256.36,1073.9,260.36,1069.9,251.36" style="stroke:#181818;stroke-width:1;"/></g><!--link sensor\nposition to Haul_Off--><g class="link" data-entity-1="sensor.nposition" data-entity-2="Haul_Off" data-source-line="28" data-uid="lnk29" id="link_sensor.nposition_Haul_Off"><path d="M497.35,129.61 C534,156.03 690.56,268.91 759.34,318.49" fill="none" id="sensor\nposition-Haul_Off" style="stroke:#181818;stroke-width:1;"/></g><!--link Thermoplastic\nposition to Haul_Off--><g class="link" data-entity-1="Thermoplastic.nposition" data-entity-2="Haul_Off" data-source-line="29" data-uid="lnk31" id="link_Thermoplastic.nposition_Haul_Off"><path d="M497.35,342 C531.27,342 667.93,342 742.61,342" fill="none" id="Thermoplastic\nposition-Haul_Off" style="stroke:#181818;stroke-width:1;"/></g><!--link Haul_Off to placement--><g class="link" data-entity-1="Haul_Off" data-entity-2="placement" data-source-line="30" data-uid="lnk32" id="link_Haul_Off_placement"><path d="M792.95,365.24 C792.95,396.38 792.95,421.51 792.95,452.65" fill="none" id="Haul_Off-to-placement" style="stroke:#181818;stroke-width:1;"/><polygon fill="#181818" points="792.95,458.65,796.95,449.65,792.95,453.65,788.95,449.65,792.95,458.65" style="stroke:#181818;stroke-width:1;"/></g><!--link Haul_Off to Haul_Off\npower--><g class="link" data-entity-1="Haul_Off" data-entity-2="Haul_Off.npower" data-source-line="31" data-uid="lnk33" id="link_Haul_Off_Haul_Off.npower"><path d="M843.17,342 C879.3,342 919.09,342 937.09,342" fill="none" id="Haul_Off-to-Haul_Off\npower" style="stroke:#181818;stroke-width:1;"/><polygon fill="#181818" points="943.09,342,934.09,338,938.09,342,934.09,346,943.09,342" style="stroke:#181818;stroke-width:1;"/></g><!--link shape to Thermoplastic--><g class="link" data-entity-1="shape" data-entity-2="Thermoplastic" data-source-line="34" data-uid="lnk36" id="link_shape_Thermoplastic"><path d="M71.01,267.76 C90.46,276.8 141.08,300.33 180.16,318.5" fill="none" id="shape-Thermoplastic" style="stroke:#181818;stroke-width:1;"/></g><!--reverse link shape to press--><g class="link" data-entity-1="shape" data-entity-2="press" data-source-line="37" data-uid="lnk39" id="link_shape_press"><path d="M61.92,248.82 C61.92,230.69 61.92,218.55 61.92,200.41" fill="none" id="shape-backto-press" style="stroke:#181818;stroke-width:1;"/><polygon fill="#181818" points="61.92,254.82,65.92,245.82,61.92,249.82,57.92,245.82,61.92,254.82" style="stroke:#181818;stroke-width:1;"/></g><!--link Thermoplastic to Thermoplastic\nposition--><g class="link" data-entity-1="Thermoplastic" data-entity-2="Thermoplastic.nposition" data-source-line="39" data-uid="lnk40" id="link_Thermoplastic_Thermoplastic.nposition"><path d="M302.01,342 C365.39,342 447.19,342 473.69,342" fill="none" id="Thermoplastic-to-Thermoplastic\nposition" style="stroke:#181818;stroke-width:1;"/><polygon fill="#181818" points="479.69,342,470.69,338,474.69,342,470.69,346,479.69,342" style="stroke:#181818;stroke-width:1;"/></g><!--link press to contact\nsensor--><g class="link" data-entity-1="press" data-entity-2="contact.nsensor" data-source-line="40" data-uid="lnk41" id="link_press_contact.nsensor"><path d="M100.96,167.32 C119.34,162.66 141.73,157.01 161.84,152 C238.17,132.99 324.8994,111.8756 351.9594,105.3056" fill="none" id="press-to-contact\nsensor" style="stroke:#181818;stroke-width:1;"/><polygon fill="#181818" points="357.79,103.89,348.1003,102.1264,352.9312,105.0697,349.9878,109.9005,357.79,103.89" style="stroke:#181818;stroke-width:1;"/></g><!--link Infrared_lamp to room--><g class="link" data-entity-1="Infrared_lamp" data-entity-2="room" data-source-line="43" data-uid="lnk43" id="link_Infrared_lamp_room"><path d="M713.38,419.47 C819.78,413.94 1011.8481,403.9609 1054.6281,401.7409" fill="none" id="Infrared_lamp-to-room" style="stroke:#181818;stroke-width:1;"/><polygon fill="#181818" points="1060.62,401.43,1051.4248,397.9018,1055.6267,401.6891,1051.8394,405.891,1060.62,401.43" style="stroke:#181818;stroke-width:1;"/></g><!--link Thermoplastic to Infrared_lamp--><g class="link" data-entity-1="Thermoplastic" data-entity-2="Infrared_lamp" data-source-line="44" data-uid="lnk44" id="link_Thermoplastic_Infrared_lamp"><path d="M296.29,365.62 C334.89,379.01 385.45,394.85 431.57,404 C479,413.41 527.3399,417.8157 569.0999,420.2157" fill="none" id="Thermoplastic-to-Infrared_lamp" style="stroke:#181818;stroke-width:1;"/><polygon fill="#181818" points="575.09,420.56,566.3343,416.0502,570.0982,420.2731,565.8753,424.037,575.09,420.56" style="stroke:#181818;stroke-width:1;"/></g><!--link building to energy--><g class="link" data-entity-1="building" data-entity-2="energy" data-source-line="49" data-uid="lnk48" id="link_building_energy"><path d="M1000.4,558.31 C1023.18,556.55 1048.19,554.61 1060.75,553.63" fill="none" id="building-energy" style="stroke:#181818;stroke-width:1;"/></g><!--link location to building--><g class="link" data-entity-1="location" data-entity-2="building" data-source-line="50" data-uid="lnk50" id="link_location_building"><path d="M801.95,565.8 C820.44,565.32 867.32,564.13 903.59,563.21" fill="none" id="location-building" style="stroke:#181818;stroke-width:1;"/></g><!--link frame to location--><g class="link" data-entity-1="frame" data-entity-2="location" data-source-line="52" data-uid="lnk51" id="link_frame_location"><path d="M529.72,493.15 C601.69,513.15 742.7089,552.3242 778.2789,562.2042" fill="none" id="frame-to-location" style="stroke:#181818;stroke-width:1;"/><polygon fill="#181818" points="784.06,563.81,776.4588,557.5472,779.2424,562.4719,774.3178,565.2554,784.06,563.81" style="stroke:#181818;stroke-width:1;"/></g><!--link room to energy--><g class="link" data-entity-1="room" data-entity-2="energy" data-source-line="53" data-uid="lnk52" id="link_room_energy"><path d="M1069.9,410.48 C1069.9,454.92 1069.9,493.36 1069.9,537.8" fill="none" id="room-to-energy" style="stroke:#181818;stroke-width:1;"/><polygon fill="#181818" points="1069.9,543.8,1073.9,534.8,1069.9,538.8,1065.9,534.8,1069.9,543.8" style="stroke:#181818;stroke-width:1;"/></g><!--SRC=[VPCzRyCW48PtViN9KpjOwjoXIvPcwj8jYIm2PmS57nPWLL7L_ru-WZ-IfXaYpFjmxtjdxCwA1cvv3qSkpfqr8ycDqSQ2jvnSa90yqzXwy0QiwauUfB8el3B4c33zO2WWi2MFjkK2NICLxsB5RmRXb_vsRTZ0Gre_FSEW0zZ7O_LOGz8ojhbeHHBjH8PqeszUeAwXQ4Koet-eLSAGvyBloI4vOwiLbBsoaftoEa1la-ChX1eK6aLvYrHvlQV1E1K7KSsT5XC8tDGcUz1TLNPYgI_CCQqn_GIyyr4t7stx5v2W-12dk7HRvuY1RtqMHstGooWNBwmOprdlcevP2ZPHdoUqlGbPd5VYFxWym5tqMOdHRoTmdUNAPmhfJdp0QBMI5sqD5ftBU5f2hOD9EZPJgyCvnQEsbfKYTtllhcct52wvHTbetW_PVhKLXp2zzplx5Sf-6DiTHwMbekx0MEWQ2MrtYQr04UAsDeB7a53BXS3IvvRI5e3DDo6N-WK0]--></g></svg>